<?xml version="1.0" standalone="no"?>
<svg viewBox="0 0 200 200" xmlns="http://www.w3.org/2000/svg">
  <path fill="#FF0066" d="M24.1,-42.5C34,-31.1,46.9,-29.2,50.2,-22.7C53.5,-16.2,47.3,-5.2,42.3,3.7C37.3,12.5,33.6,19.2,30.4,30.7C27.2,42.3,24.6,58.7,17.5,61.7C10.4,64.8,-1.3,54.5,-17.5,52.9C-33.8,51.3,-54.6,58.3,-63.2,52.5C-71.8,46.6,-68.3,28,-65.2,12.8C-62.1,-2.5,-59.5,-14.2,-56.1,-27.2C-52.6,-40.2,-48.3,-54.3,-38.8,-66C-29.3,-77.7,-14.7,-86.9,-3.8,-81C7.1,-75.1,14.1,-54,24.1,-42.5Z" transform="translate(100 100)" />
</svg>
